HIERARCHY
ROOT Hips
{
	OFFSET 0.00000 0.00000 0.00000
	CHANNELS 6 Xposition Yposition Zposition Zrotation Yrotation Xrotation 
	JOINT LHipJoint
	{
		OFFSET 0 0 0
		CHANNELS 3 Zrotation Yrotation Xrotation
		JOINT LeftHip
		{
			OFFSET 1.74857 -1.85566 0.69197
			CHANNELS 3 Zrotation Yrotation Xrotation
			JOINT LeftKnee
			{
				OFFSET 2.40003 -6.59403 0.00000
				CHANNELS 3 Zrotation Yrotation Xrotation
				JOINT LeftAnkle
				{
					OFFSET 2.82169 -7.75254 0.00000
					CHANNELS 3 Zrotation Yrotation Xrotation
					JOINT LeftToe
					{
						OFFSET 0.16466 -0.45240 2.26890
						CHANNELS 3 Zrotation Yrotation Xrotation
						End Site
						{
							OFFSET 0.00000 -0.00000 1.16486
						}
					}
				}
			}
		}
	}
	JOINT RHipJoint
	{
		OFFSET 0 0 0
		CHANNELS 3 Zrotation Yrotation Xrotation
		JOINT RightHip
		{
			OFFSET -1.64169 -1.85566 0.69197
			CHANNELS 3 Zrotation Yrotation Xrotation
			JOINT RightKnee
			{
				OFFSET -2.41814 -6.64379 0.00000
				CHANNELS 3 Zrotation Yrotation Xrotation
				JOINT RightAnkle
				{
					OFFSET -2.80588 -7.70911 0.00000
					CHANNELS 3 Zrotation Yrotation Xrotation
					JOINT RightToe
					{
						OFFSET -0.19098 -0.52472 2.25401
						CHANNELS 3 Zrotation Yrotation Xrotation
						End Site
						{
							OFFSET -0.00000 -0.00000 1.16333
						}
					}
				}
			}
		}
	}
	JOINT lowerback
	{
		OFFSET 0 0 0
		CHANNELS 3 Zrotation Yrotation Xrotation
		JOINT Chest
		{
			OFFSET -0.02828 2.14690 -0.11061
			CHANNELS 3 Zrotation Yrotation Xrotation
			JOINT Chest2
			{
				OFFSET -0.00167 2.15299 0.00759
				CHANNELS 3 Zrotation Yrotation Xrotation
				JOINT lowerneck
				{
					OFFSET 0 0 0
					CHANNELS 3 Zrotation Yrotation Xrotation
					JOINT Neck
					{
						OFFSET -0.09296 1.90118 0.07197
						CHANNELS 3 Zrotation Yrotation Xrotation
						JOINT Head
						{
							OFFSET 0.08490 1.89526 -0.24604
							CHANNELS 3 Zrotation Yrotation Xrotation
							End Site
							{
								OFFSET 0.03186 1.92109 -0.09483
							}
						}
					}
				}
				JOINT LeftCollar
				{
					OFFSET 0 0 0
					CHANNELS 3 Zrotation Yrotation Xrotation
					JOINT LeftShoulder
					{
						OFFSET 3.21569 1.44644 -0.03720
CHANNELS 3 Zrotation Xrotation Yrotation
						JOINT LeftElbow
						{
OFFSET 0 -5.476510 -0.000000
CHANNELS 3 Zrotation Xrotation Yrotation
							JOINT LeftWrist
							{
OFFSET 0 -3.090580 -0.000000
CHANNELS 3 Zrotation Xrotation Yrotation
								JOINT lhand
								{
									OFFSET 0 0 0
CHANNELS 3 Zrotation Xrotation Yrotation
									JOINT LFingers
									{
OFFSET 0 -0.771610 -0.000000
CHANNELS 3 Zrotation Xrotation Yrotation
										End Site
										{
OFFSET 0 -0.622090 -0.000000
										}
									}
								}
								JOINT LThumb
								{
OFFSET 0 0.000000 0.000000
CHANNELS 3 Zrotation Xrotation Yrotation
									End Site
									{
OFFSET 0 -0.631590 0.631590
									}
								}
							}
						}
					}
				}
				JOINT RightCollar
				{
					OFFSET 0 0 0
					CHANNELS 3 Zrotation Yrotation Xrotation
					JOINT RightShoulder
					{
						OFFSET -3.38693 1.28904 -0.07093
CHANNELS 3 Zrotation Xrotation Yrotation
						JOINT RightElbow
						{
OFFSET 0 -5.141820 -0.000000
CHANNELS 3 Zrotation Xrotation Yrotation
							JOINT RightWrist
							{
OFFSET 0 -3.355650 -0.000000
CHANNELS 3 Zrotation Xrotation Yrotation
								JOINT rhand
								{
									OFFSET 0 0 0
CHANNELS 3 Zrotation Xrotation Yrotation
									JOINT RFingers
									{
OFFSET 0 -0.801040 -0.000000
CHANNELS 3 Zrotation Xrotation Yrotation
										End Site
										{
OFFSET 0 -0.645820 -0.000000
										}
									}
								}
								JOINT RThumb
								{
OFFSET 0 0.000000 0.000000
CHANNELS 3 Zrotation Xrotation Yrotation
									End Site
									{
OFFSET 0 -0.655680 0.655680
									}
								}
							}
						}
					}
				}
			}
		}
	}
}
MOTION
Frames: 5
Frame Time: 0.008333333333333333
0.494507 17.963845 -1.085422 2.623835 -11.358685 1.854735 0.000000 0.000000 0.000000 -22.295871 0.187413 -13.449400 2.001242 8.868685 25.385456 0.701206 10.376170 -22.791273 0.427256 -4.194489 -11.624446 0.000000 0.000000 0.000000 13.934331 10.435097 -13.634625 -2.130861 -9.133416 26.213638 -0.329973 -7.786016 -16.381319 -0.426955 4.193242 -11.621066 -0.885687 0.784280 8.718001 -0.936375 0.968122 7.648303 -0.529827 0.456680 3.055577 -3.368617 1.327286 4.073652 9.573663 1.336073 5.327512 3.697737 0.665241 0.888228 0.000000 0.000000 0.000000 -15.869510 -39.502709 -50.814552 131.929822 -52.186938 95.358778 -29.745827 -1.442409 -38.138571 0.000000 0.000000 0.000000 -7.125000 0.000000 0.000000 -67.639893 55.817661 26.108012 0.000000 0.000000 0.000000 -5.319247 -22.195073 49.951721 -148.443354 -42.190433 -107.557824 46.955239 -5.482201 3.687776 0.000000 0.000000 0.000000 7.125000 0.000000 0.000000 45.419865 23.242872 38.125294
0.508966 17.896412 -1.102209 2.513686 -9.480188 1.338609 0.000000 0.000000 0.000000 -22.116125 -0.263617 -13.838073 2.243347 9.355488 26.913925 0.787555 9.110361 -22.436286 0.523682 -4.637252 -12.876868 0.000000 0.000000 0.000000 13.992332 9.224320 -14.379669 -2.496966 -9.832317 28.435444 -0.423006 -7.965382 -17.695419 -0.435708 4.235631 -11.740590 -1.724228 -0.102110 8.526556 -1.161029 -0.235179 8.099094 -0.225903 -0.180535 3.639299 -3.072708 2.071539 4.431544 10.391828 2.276370 5.748617 3.919183 1.140263 0.887478 0.000000 0.000000 0.000000 -13.762607 -34.665210 -50.459657 132.087334 -52.118129 95.483206 -30.362836 -1.970540 -37.935620 0.000000 0.000000 0.000000 -7.125000 0.000000 0.000000 -67.846851 55.572501 25.804601 0.000000 0.000000 0.000000 -6.023812 -25.666137 48.189577 -152.091800 -39.031002 -109.933914 49.124471 -14.083453 2.985659 0.000000 0.000000 0.000000 7.125000 0.000000 0.000000 44.949596 20.558705 42.571699
0.482065 17.857348 -1.112823 2.656761 -7.811993 0.770286 0.000000 0.000000 0.000000 -22.132940 -0.744746 -13.596876 2.353322 9.566171 27.582986 0.835632 8.098543 -22.033412 0.501537 -4.538857 -12.598009 0.000000 0.000000 0.000000 13.957293 8.028971 -14.472295 -2.700319 -10.193289 29.604991 -0.450680 -8.471979 -18.494325 -0.526519 4.649882 -12.912594 -2.264797 -0.004875 8.589495 -1.442043 -0.120119 8.338570 -0.222171 -0.141372 3.861819 -3.175447 1.892595 4.402496 12.089477 1.914572 6.443193 4.569585 0.988497 1.130904 0.000000 0.000000 0.000000 -11.661835 -29.538115 -53.440086 134.134381 -51.185397 97.088728 -29.485031 -3.257559 -38.540777 0.000000 0.000000 0.000000 -7.125000 0.000000 0.000000 -67.944989 56.091220 26.818901 0.000000 0.000000 0.000000 -6.202263 -30.721468 44.453989 -154.751515 -36.456892 -111.562827 51.359148 -24.976639 4.318220 0.000000 0.000000 0.000000 7.125000 0.000000 0.000000 45.159685 19.759265 44.863784
0.403761 17.873500 -1.126949 2.306479 -5.833529 0.607528 0.000000 0.000000 0.000000 -21.492678 -1.443980 -13.084175 2.285330 9.436602 27.170882 0.774520 7.557126 -21.035748 0.589186 -4.914111 -13.663822 0.000000 0.000000 0.000000 14.639784 6.722628 -13.842492 -2.592765 -10.004615 28.991665 -0.429107 -9.064345 -18.829177 -0.438943 4.251176 -11.784427 -1.718075 0.670440 8.268962 -1.417390 0.823808 8.417152 -0.546350 0.360344 4.116118 -2.961263 0.905330 4.425031 13.115195 0.543286 6.615586 4.760193 0.334933 1.250352 0.000000 0.000000 0.000000 -8.303019 -24.128787 -57.955042 136.285084 -50.123147 98.752042 -30.368917 -5.628423 -38.543006 0.000000 0.000000 0.000000 -7.125000 0.000000 0.000000 -68.603804 55.894479 26.933081 0.000000 0.000000 0.000000 -6.224651 -37.076406 40.363118 -155.287571 -35.908567 -111.879398 51.003711 -31.512424 4.815620 0.000000 0.000000 0.000000 7.125000 0.000000 0.000000 45.447859 20.772365 43.507635
0.271401 17.928356 -1.128412 1.881745 -3.471171 0.867081 0.000000 0.000000 0.000000 -20.622180 -2.704376 -12.250676 2.048746 8.966738 25.691452 0.679880 7.272198 -19.881889 0.631648 -5.084972 -14.151094 0.000000 0.000000 0.000000 15.639027 5.517938 -12.842975 -2.279689 -9.425758 27.136531 -0.312818 -10.377102 -18.898914 -0.356757 3.837397 -10.619661 -1.374008 1.353987 7.732554 -0.706371 1.750782 8.295199 -0.031739 0.823962 4.266945 -3.742270 -0.301229 4.230616 14.198097 -1.172293 6.856480 4.903333 -0.489150 1.389963 0.000000 0.000000 0.000000 -4.662569 -20.357901 -61.654766 139.517486 -48.352934 101.200839 -32.080022 -6.870902 -37.465752 0.000000 0.000000 0.000000 -7.125000 0.000000 0.000000 -68.527811 54.947876 25.111951 0.000000 0.000000 0.000000 -6.077460 -42.592567 38.215365 -154.277861 -36.932898 -111.279771 50.121363 -30.432678 4.605296 0.000000 0.000000 0.000000 7.125000 0.000000 0.000000 45.511197 21.448457 42.202030
